<svg width="601" height="601" viewBox="0 0 601 601" fill="none" xmlns="http://www.w3.org/2000/svg">
<path d="M104.311 107.137C131.83 88.1778 164.639 84.3786 197.059 84.544C202.047 84.5694 207.483 82.4892 202.769 89.188C182.738 117.656 157.824 143.805 133.867 168.953C123.584 179.747 112.584 189.736 102.052 200.268C97.7839 204.537 92.2369 209.408 89.2505 214.828C87.9193 217.244 91.3895 217.038 92.7647 217.087C119.338 218.037 147.702 207.5 171.895 198.323C213.052 182.71 252.189 162.665 291.94 143.912C316.394 132.376 341.357 119.748 368.121 114.416C373.12 113.421 389.678 108.704 389.08 117.554C388.369 128.082 383.221 138.422 377.283 146.925C354.678 179.287 321.356 205.345 290.057 228.635C264.775 247.447 238.194 264.48 211.366 280.974C205.719 284.446 192.393 289.884 187.395 295.597C185.717 297.515 192.38 297.045 194.925 296.915C227.926 295.219 261.319 287.283 292.944 278.213C314.53 272.022 334.841 263.769 355.068 254.177C362.667 250.574 370.895 245.453 379.04 242.881C379.599 242.704 380.902 242.367 380.797 242.943C379.76 248.605 377.398 253.943 375.526 259.386C370.479 274.054 359.176 306.149 354.692 318.754C338.927 363.075 323.084 407.394 306.185 451.298C296.474 476.524 290.369 491.984 279.829 515.498C276.843 522.159 272.607 528.329 270.541 535.33C268.167 543.375 286.919 531.048 294.324 527.108C333.06 506.501 369.939 482.682 404.894 456.193C414.275 449.083 423.242 441.485 433.069 434.981C434.417 434.089 439.122 429.921 437.587 434.165C433.783 444.683 429.389 454.999 425.476 465.481C424.981 466.807 418.38 480.218 419.703 482.865C419.778 483.015 420.087 483.047 420.205 482.927C425.483 477.577 429.814 471.369 434.638 465.606C463.523 431.1 493.651 397.873 525.88 366.45C532.857 359.647 545.93 350.56 551.671 341.849C554.042 338.251 542.971 341.136 538.744 341.974C508.14 348.047 474.587 356.328 445.118 364.316C384.713 380.689 324.607 398.627 268.596 427.073C253.46 434.76 234.168 447.297 219.649 457.448C216.848 459.406 214.23 461.615 211.492 463.661C210.59 464.335 209.85 465.724 208.731 465.606C207.869 465.516 209.752 464.206 210.299 463.535C214.712 458.131 219.325 452.892 223.791 447.532C238.925 429.369 254 410.912 265.521 390.172C265.747 389.766 273.319 377.035 272.11 374.483C269.282 368.513 237.224 375.833 234.208 376.491C228.986 377.629 223.841 379.131 218.771 380.821C212.366 382.956 206.689 387.99 199.945 388.289C193.337 388.583 209.217 378.792 214.441 374.734C236.477 357.616 258.481 341.878 281.397 325.783C295.5 315.878 309.8 306.259 323.943 296.413C333.96 289.439 344.239 282.815 353.876 275.326C356.669 273.155 364.63 267.486 361.093 267.544C353.161 267.675 346.066 272.656 338.69 275.577C324.724 281.109 310.935 287.08 297.085 292.898C267.392 305.373 237.697 317.845 208.103 330.553C193.714 336.731 177.164 342.917 163.612 351.388C142.194 364.775 207.876 327.013 229.439 313.859C270.929 288.549 311.426 261.931 350.048 232.4C357.84 226.443 366.298 221.073 372.764 213.698C374.013 212.274 369.758 210.965 367.87 210.812C311.975 206.269 256.394 223.752 202.518 235.601C198.415 236.503 194.29 237.303 190.156 238.048C187.337 238.557 181.677 241.917 181.622 239.052C181.595 237.671 183.133 236.734 184.006 235.664C186.65 232.421 189.288 229.163 192.164 226.124C208.859 208.485 224.29 194.125 243.119 178.052C274.282 151.45 307.236 127.309 339.882 102.618C346.299 97.7653 363.605 87.0715 355.947 84.6067C338.503 78.9921 312.096 81.6263 295.077 82.6613C242.178 85.8784 189.085 94.2615 138.448 110.149C124.701 114.462 109.563 119.795 96.9691 127.156C96.0408 127.699 93.3458 129.331 94.3962 129.102C97.2045 128.488 99.8117 127.153 102.428 125.964C120.699 117.658 144.184 105.549 161.039 96.9072C187.855 83.1576 214.509 69.095 241.236 55.1736C243.01 54.2495 257.861 46.8679 244.876 51.5336C180.516 74.6587 118.516 107.19 58 138.766" stroke="#FCF1DD" stroke-width="96" stroke-linecap="round"/>
<path d="M274 69.4995L278.5 260.499L465.5 312L456.5 348L437 389.5L412 409L377 453L318.5 477.5H274L234 467.5L200.5 430L185.5 389.5V321.5L211 69.4995C211 31.9999 274 39 274 69.4995Z" fill="#322FCD"/>
<path d="M274 477.5L234 467.5L200.5 430L185.5 389.5V321.5L211 69.4995C211 31.9999 274 39 274 69.4995L278.5 260.499L465.5 312L456.5 348L437 389.5L412 409M274 477.5H318.5L377 453L412 409M274 477.5V547M412 409C299.2 469.4 256 375.833 248.5 321.5M274 547L242.5 555M274 547L262 565M274 547L300 555" stroke="black"/>
<path d="M316 478V550M316 550L290.5 563.5M316 550L309 568M316 550L340 561" stroke="black"/>
<path d="M402.5 249L400.5 294L443.5 305.5L450.5 239L433.5 242L429 256.5L427 244.5H418.5L409 291L411.5 246.5L402.5 249Z" fill="#F5CEE9" stroke="black"/>
<circle cx="248.5" cy="85.5" r="19" fill="white" stroke="black"/>
<circle cx="249" cy="86" r="12" fill="black"/>
<path d="M216.5 97.9999L203 85.4999L177 100.5L205.5 108.5L216.5 97.9999Z" fill="#F5CEE9" stroke="black"/>
<path d="M209.698 76.1677C212.864 78.001 217.5 79.5 220.698 85.6677C222.271 88.7018 219.5 95.5 216.5 98L202.698 85.6677C200 76.1677 206.5 75 209.698 76.1677Z" fill="white" stroke="black"/>
<path d="M289.5 66.5L196.5 64.5L220 49V33H272.5V50.5L289.5 66.5Z" fill="#F5CEE9" stroke="black"/>
<path d="M364 426L264 313C331.167 328.5 464.5 362.359 437 389C409.5 415.641 376.5 424.5 364 426Z" fill="#F5CEE9"/>
</svg>
