<svg width="84" height="111" viewBox="0 0 84 111" fill="none" xmlns="http://www.w3.org/2000/svg">
<g clip-path="url(#clip0_247_906)">
<path d="M13.9221 58.6232L29.4999 111.5L53.4999 111.5L81.4999 111.5C74.183 84.9689 74.5205 80.3575 69.2568 58.632C58.688 15.0094 62.856 25.0122 27.8424 19.1907C18.2516 30.6847 8.83853 35.0253 13.9221 58.6232Z" fill="#322FCD"/>
<path d="M52.3764 96.6662L46.6832 76.0224L54.4482 72.7338L60.4354 94.4437L52.3764 96.6662Z" fill="#F5CEE9"/>
<path d="M47.5479 88.1571C47.5479 88.1571 82.3427 97.7827 90.2126 102.955C90.2126 102.955 55.5163 110.409 49.2115 98.6331C47.1981 94.8726 47.5479 88.1571 47.5479 88.1571Z" fill="#F0B9DF"/>
<path d="M54.6421 79.5562C58.1406 78.6696 84.5038 96.2603 90.2505 102.992C90.2505 102.992 55.1812 92.283 52.7004 90.2323C50.2197 88.1817 51.1435 80.4428 54.6421 79.5562Z" fill="#F5CEE9"/>
<path d="M42.1289 107.139C42.1289 107.139 79.7498 101.683 90.1523 102.966C90.1523 102.966 50.1971 117.193 50.2593 115.296C50.3215 113.399 42.1289 107.139 42.1289 107.139Z" fill="#F0B9DF"/>
<path d="M42.8968 98.1387C44.4392 97.2021 80.5148 99.7229 90.0774 102.918L48.2204 107.7C48.2204 107.7 41.3544 99.0753 42.8968 98.1387Z" fill="#F5CEE9"/>
<ellipse cx="44.553" cy="55.4641" rx="15.0136" ry="17.2315" transform="rotate(-15.418 44.553 55.4641)" fill="white"/>
<ellipse cx="47.7319" cy="55.1184" rx="8.61577" ry="12.1133" transform="rotate(-15.418 47.7319 55.1184)" fill="black"/>
<ellipse cx="18.5527" cy="65.4664" rx="4.00932" ry="5.11828" transform="rotate(-15.418 18.5527 65.4664)" fill="white"/>
<ellipse cx="17.7302" cy="65.6931" rx="2.13262" ry="3.24158" transform="rotate(-15.418 17.7302 65.6931)" fill="black"/>
<path d="M61.6605 51.7195C64.4993 62.0128 58.8787 72.4852 49.1878 75.1578C39.4969 77.8304 29.3028 71.7194 26.4641 61.4261C23.6254 51.1328 29.2459 40.6604 38.9369 37.9878C48.6278 35.3152 58.8218 41.4262 61.6605 51.7195Z" fill="#F5CEE9" fill-opacity="0.3" stroke="#F5CEE9" stroke-width="1.19426"/>
<path d="M16.2289 72.1211L23.9717 66.6264L25.3131 68.3818L26.6544 70.1372L25.9221 73.6985L16.2289 72.1211Z" fill="#F5CEE9"/>
<g filter="url(#filter0_d_247_906)">
<path d="M22.9389 64.6412C22.198 64.5104 21.2942 67.2592 20.9349 68.65C22.8741 67.225 22.9577 68.0921 23.8247 67.853C24.6916 67.6139 26.3101 70.1 26.0685 69.2241C25.6613 65.3043 23.865 64.8047 22.9389 64.6412Z" fill="white"/>
</g>
<path d="M10.4777 60.2691C-1.48632 66.6226 13.3913 54.7804 13.3913 54.7804C12.9241 46.4759 11.3837 44.1609 14.0262 33.9736C15.3642 28.8153 23.0402 16.9721 28.9487 14.2841C39.7673 7.24003 53.5452 13.5584 58.6085 25.572L62.0226 30.5406L71.418 44.3997C73.794 47.9785 79.5462 55.4016 69.7609 58.6L62.0226 30.5406L58.6085 25.572L47.3075 30.7463C47.5193 31.2141 47.4194 32.7591 46.0352 36.4073C43.6705 42.6401 22.4417 53.9156 10.4777 60.2691Z" fill="#F5CEE9"/>
<path d="M58.6085 25.572L46.734 31.0089C47.0163 30.0807 48.3999 30.1746 46.0352 36.4073C43.6705 42.6401 22.4417 53.9156 10.4777 60.2691C-1.48632 66.6226 13.3913 54.7804 13.3913 54.7804C12.9241 46.4759 11.3837 44.1609 14.0262 33.9736C15.3642 28.8153 23.0402 16.9721 28.9487 14.2841C39.7673 7.24003 53.5452 13.5584 58.6085 25.572ZM58.6085 25.572L62.0226 30.5406M62.0226 30.5406L71.418 44.3997C73.794 47.9785 79.5462 55.4016 69.7609 58.6L62.0226 30.5406Z" stroke="#F5CEE9" stroke-width="0.853046"/>
</g>
<defs>
<filter id="filter0_d_247_906" x="19.2287" y="62.5894" width="8.22892" height="7.84611" filterUnits="userSpaceOnUse" color-interpolation-filters="sRGB">
<feFlood flood-opacity="0" result="BackgroundImageFix"/>
<feColorMatrix in="SourceAlpha" type="matrix" values="0 0 0 0 0 0 0 0 0 0 0 0 0 0 0 0 0 0 127 0" result="hardAlpha"/>
<feOffset dx="-0.170609" dy="-0.511828"/>
<feGaussianBlur stdDeviation="0.767741"/>
<feComposite in2="hardAlpha" operator="out"/>
<feColorMatrix type="matrix" values="0 0 0 0 0 0 0 0 0 0 0 0 0 0 0 0 0 0 0.2 0"/>
<feBlend mode="normal" in2="BackgroundImageFix" result="effect1_dropShadow_247_906"/>
<feBlend mode="normal" in="SourceGraphic" in2="effect1_dropShadow_247_906" result="shape"/>
</filter>
<clipPath id="clip0_247_906">
<rect width="84" height="111" fill="white"/>
</clipPath>
</defs>
</svg>
