<svg width="240" height="406" viewBox="0 0 240 406" fill="none" xmlns="http://www.w3.org/2000/svg">
<path d="M104.106 355.296V383.591M104.106 383.591L95.2971 388.129M104.106 383.591V391.599M104.106 383.591L112.915 388.129" stroke="#F5CEE9" stroke-width="3.73714"/>
<path d="M126.262 355.029V383.324M126.262 383.324L117.453 387.862M126.262 383.324V391.332M126.262 383.324L135.071 387.862" stroke="#F5CEE9" stroke-width="3.73714"/>
<path d="M92.8947 37.1045L79.5477 33.1005H155.358L141.744 37.1045H92.8947Z" fill="#E7AAD4"/>
<path d="M58.1926 222.093C56.3241 201.984 49.5438 161.071 37.3714 158.295C25.199 155.519 46.1804 153.935 58.1926 153.49C59.1554 159.16 60.3207 166.673 61.3755 174.578L72.0735 160.43C73.7288 168.431 77.3088 188.087 77.8405 197.268L77.4122 174.578C79.9926 172.976 85.6339 170.254 87.5559 172.176C88.6443 173.264 89.4416 176.287 89.977 179.383C89.6148 174.044 88.0364 163.206 84.6196 162.566C81.2028 161.925 90.3143 154.825 95.2971 151.354V188.993C88.3052 194.348 73.7896 206.121 63.6014 216.326C63.4332 216.94 63.2327 217.443 62.9975 217.822L63.1833 216.746C61.3462 218.601 59.6586 220.399 58.1926 222.093Z" fill="#F5CEE9"/>
<path d="M176.428 223.161C178.241 201.913 184.823 158.685 196.639 155.751C208.455 152.818 188.088 151.144 176.428 150.674C175.493 156.665 174.362 164.604 173.338 172.956L162.953 158.008C161.346 166.461 157.871 187.23 157.355 196.93L157.771 172.956C155.266 171.264 149.79 168.387 147.924 170.418C146.868 171.568 146.094 174.762 145.574 178.033C145.926 172.392 147.458 160.941 150.775 160.264C154.091 159.587 145.247 152.085 140.41 148.418V188.187C147.197 193.845 161.287 206.284 171.177 217.067C171.34 217.716 171.535 218.248 171.763 218.648L171.583 217.511C173.366 219.471 175.004 221.371 176.428 223.161Z" fill="#F5CEE9"/>
<path d="M95.2971 37.9054C95.2971 2.93646 140.41 0.800934 140.41 37.9054V185.523C196.467 240.245 218.089 268.541 203.407 316.857C188.434 366.131 60.4093 378.904 32.2996 316.857C10.4106 268.541 61.9298 210.259 95.2971 185.523V37.9054Z" fill="#322FCD"/>
<path d="M88.3567 52.587C87.7161 46.8211 92.8947 37.3715 95.5641 33.3674C95.5641 33.3674 101.17 43.5111 100.636 52.587C100.102 61.6629 95.5641 69.938 95.5641 69.938C93.4286 66.5568 88.9974 58.3529 88.3567 52.587Z" fill="white"/>
<path d="M91.3119 52.8384C91.0907 49.6398 92.8788 44.3976 93.8005 42.1764C93.8005 42.1764 95.7361 47.8035 95.5517 52.8384C95.3674 57.8732 93.8005 62.4637 93.8005 62.4637C93.0631 60.588 91.5331 56.0369 91.3119 52.8384Z" fill="black" stroke="black" stroke-opacity="0.52" stroke-width="0.266939"/>
<path d="M132.99 52.854C132.349 47.0881 137.528 37.6385 140.197 33.6344C140.197 33.6344 145.803 43.7781 145.269 52.854C144.735 61.9299 140.197 70.205 140.197 70.205C138.062 66.8238 133.631 58.6199 132.99 52.854Z" fill="white"/>
<path d="M138.827 52.8384C138.606 49.6398 140.394 44.3976 141.316 42.1764C141.316 42.1764 143.251 47.8035 143.067 52.8384C142.882 57.8732 141.316 62.4637 141.316 62.4637C140.578 60.588 139.048 56.0369 138.827 52.8384Z" fill="black" stroke="black" stroke-opacity="0.52" stroke-width="0.266939"/>
<path d="M117.453 46.1804C113.464 46.1804 110.869 52.6759 110.78 56.858H124.393C123.148 53.5657 121.724 46.1804 117.453 46.1804Z" fill="white"/>
<path d="M108.377 58.7265L117.453 51.7861L126.529 58.7265L117.453 62.1967L108.377 58.7265Z" fill="#F5CEE9"/>
<path d="M96.0979 26.1601L79.0139 33.1005H155.892L138.541 26.1601V0.00012207H96.0979V26.1601Z" fill="#F5CEE9"/>
<path d="M19.5966 201.712C19.5966 201.712 53.499 295.14 59.7523 329.706C59.7523 329.706 17.8901 313.028 16.4861 251.103C16.0377 231.328 19.5966 201.712 19.5966 201.712Z" fill="#F0B9DF"/>
<path d="M31.4992 173.381C35.7841 174.458 56.6066 291.433 59.7767 329.927C59.7767 329.927 26.0828 231.243 24.3102 218.462C22.5376 205.682 27.2143 172.305 31.4992 173.381Z" fill="#F5CEE9"/>
<path d="M4.64137 279.025C4.64137 279.025 48.7914 308.889 59.6805 329.669C59.6805 329.669 8.8074 335.774 9.77231 327.355C10.7372 318.936 4.64137 279.025 4.64137 279.025Z" fill="#F0B9DF"/>
<path d="M9.74203 239.765C11.8889 237.791 50.563 301.203 59.6208 329.344L11.1081 290.339C11.1081 290.339 7.59518 241.738 9.74203 239.765Z" fill="#F5CEE9"/>
<path d="M218.241 201.712C218.241 201.712 181.398 295.14 174.602 329.706C174.602 329.706 220.096 313.028 221.621 251.103C222.109 231.328 218.241 201.712 218.241 201.712Z" fill="#F0B9DF"/>
<path d="M205.306 173.381C200.65 174.458 178.021 291.433 174.576 329.927C174.576 329.927 211.192 231.243 213.119 218.462C215.045 205.682 209.963 172.305 205.306 173.381Z" fill="#F5CEE9"/>
<path d="M234.494 279.025C234.494 279.025 186.514 308.889 174.681 329.669C174.681 329.669 229.966 335.774 228.918 327.355C227.869 318.936 234.494 279.025 234.494 279.025Z" fill="#F0B9DF"/>
<path d="M228.95 239.765C226.617 237.791 184.589 301.203 174.745 329.344L227.466 290.339C227.466 290.339 231.283 241.738 228.95 239.765Z" fill="#F5CEE9"/>
</svg>
