<svg width="139" height="163" viewBox="0 0 139 163" fill="none" xmlns="http://www.w3.org/2000/svg">
<path d="M32.7281 102.546L55.4592 221.67L161.301 201.473C150.881 146.863 151.211 156.157 144.144 111.557C129.953 22.0052 136.72 42.8234 67.1655 25.4112C45.9863 46.9955 26.3275 54.2056 32.7281 102.546Z" fill="#322FCD"/>
<path d="M103.973 185.396L95.865 142.904L112.034 137.545L120.561 182.231L103.973 185.396Z" fill="#F5CEE9"/>
<path d="M95.6337 167.478C95.6337 167.478 164.129 192.515 179.135 204.208C179.135 204.208 108.062 213.578 97.2808 188.842C93.8381 180.943 95.6337 167.478 95.6337 167.478Z" fill="#F0B9DF"/>
<path d="M111.316 151.313C118.504 150.097 168.728 189.8 179.205 204.289C179.205 204.289 110.333 177.026 105.671 172.494C101.01 167.962 104.128 152.53 111.316 151.313Z" fill="#F5CEE9"/>
<path d="M84.6468 186.82C87.9046 185.185 160.133 196.124 178.869 204.111L93.812 206.937C93.812 206.937 81.389 188.456 84.6468 186.82Z" fill="#F5CEE9"/>
<ellipse cx="94.9173" cy="101.164" rx="30.3284" ry="34.8087" transform="rotate(-10.8033 94.9173 101.164)" fill="white"/>
<ellipse cx="101.374" cy="100.984" rx="17.4043" ry="24.4695" transform="rotate(-10.8033 101.374 100.984)" fill="black"/>
<ellipse cx="40.9394" cy="117.078" rx="8.09905" ry="10.3392" transform="rotate(-10.8033 40.9394 117.078)" fill="white"/>
<ellipse cx="39.2467" cy="117.401" rx="4.308" ry="6.54817" transform="rotate(-10.8033 39.2467 117.401)" fill="black"/>
<path d="M129.972 96.4045C134.015 117.592 120.996 137.764 101.049 141.571C81.1015 145.377 61.569 131.416 57.5261 110.229C53.4832 89.0417 66.5023 68.8688 86.4494 65.0625C106.397 61.2562 125.929 75.2176 129.972 96.4045Z" fill="#F5CEE9" fill-opacity="0.3" stroke="#F5CEE9" stroke-width="2.41248"/>
<path d="M35.1791 130.1L51.6623 120.295L54.0779 124.047L56.4934 127.8L54.4401 134.851L35.1791 130.1Z" fill="#F5CEE9"/>
<g filter="url(#filter0_d_84_1157)">
<path d="M49.9054 116.129C48.4348 115.746 46.1682 121.133 45.2187 123.875C49.3549 121.321 49.3824 123.081 51.1669 122.74C52.9513 122.4 55.8061 127.669 55.4621 125.866C55.2791 117.907 51.7436 116.609 49.9054 116.129Z" fill="white"/>
</g>
<path d="M25.5253 105.301C0.40309 116.149 32.284 94.7227 32.284 94.7227C32.693 77.9256 29.9676 73.0141 36.944 52.9313C40.4764 42.7625 57.8569 20.1636 70.1905 15.7116C93.1187 3.28656 119.834 18.2479 128.076 43.2604L134.143 53.8196L150.808 83.252C155.011 90.844 165.387 106.725 145.164 111.575L134.143 53.8196L128.076 43.2604L104.481 51.8421C104.831 52.8185 104.379 55.913 100.999 63.0339C95.2244 75.1992 50.6475 94.4523 25.5253 105.301Z" fill="#F5CEE9"/>
<path d="M128.076 43.2604L103.283 52.2776C104.002 50.4547 106.773 50.8686 100.999 63.0339C95.2244 75.1992 50.6475 94.4523 25.5253 105.301C0.40309 116.149 32.284 94.7227 32.284 94.7227C32.693 77.9256 29.9676 73.0141 36.944 52.9313C40.4764 42.7625 57.8569 20.1636 70.1905 15.7116C93.1187 3.28656 119.834 18.2479 128.076 43.2604ZM128.076 43.2604L134.143 53.8196M134.143 53.8196L150.808 83.252C155.011 90.844 165.387 106.725 145.164 111.575L134.143 53.8196Z" stroke="#F5CEE9" stroke-width="1.7232"/>
<defs>
<filter id="filter0_d_84_1157" x="41.7723" y="111.974" width="16.4753" height="16.3362" filterUnits="userSpaceOnUse" color-interpolation-filters="sRGB">
<feFlood flood-opacity="0" result="BackgroundImageFix"/>
<feColorMatrix in="SourceAlpha" type="matrix" values="0 0 0 0 0 0 0 0 0 0 0 0 0 0 0 0 0 0 127 0" result="hardAlpha"/>
<feOffset dx="-0.34464" dy="-1.03392"/>
<feGaussianBlur stdDeviation="1.55088"/>
<feComposite in2="hardAlpha" operator="out"/>
<feColorMatrix type="matrix" values="0 0 0 0 0 0 0 0 0 0 0 0 0 0 0 0 0 0 0.2 0"/>
<feBlend mode="normal" in2="BackgroundImageFix" result="effect1_dropShadow_84_1157"/>
<feBlend mode="normal" in="SourceGraphic" in2="effect1_dropShadow_84_1157" result="shape"/>
</filter>
</defs>
</svg>
