<svg width="85" height="85" viewBox="0 0 85 85" fill="none" xmlns="http://www.w3.org/2000/svg">
<rect x="0.5" y="0.5" width="84" height="84" rx="42" fill="white"/>
<mask id="mask0_442_7498" style="mask-type:alpha" maskUnits="userSpaceOnUse" x="1" y="1" width="83" height="83">
<circle cx="42.5" cy="42.5" r="41.5" fill="#D9D9D9"/>
</mask>
<g mask="url(#mask0_442_7498)">
<path d="M26.2594 34.1854L17.4424 31.5403H67.5229L58.5296 34.1854H26.2594Z" fill="#E7AAD4"/>
<path d="M27.8463 34.7144C27.8463 11.6139 57.6477 10.2032 57.6477 34.7144V132.23C94.6791 168.38 108.963 187.072 99.2639 218.99C89.3728 251.54 4.79934 259.978 -13.7699 218.99C-28.2298 187.072 5.8038 148.571 27.8463 132.23V34.7144Z" fill="#322FCD"/>
<path d="M23.2615 44.413C22.8383 40.6041 26.2593 34.3616 28.0227 31.7166C28.0227 31.7166 31.7258 38.4175 31.3731 44.413C31.0205 50.4086 27.7279 55.1697 27.7279 55.1697C26.3172 52.9361 23.6847 48.222 23.2615 44.413Z" fill="white"/>
<path d="M25.2138 44.5791C25.0677 42.4661 26.2489 39.0031 26.8578 37.5358C26.8578 37.5358 28.1365 41.2531 28.0147 44.5791C27.8929 47.9051 26.8578 50.9376 26.8578 50.9376C26.3707 49.6985 25.36 46.692 25.2138 44.5791Z" fill="black"/>
<path d="M52.7464 44.5894C52.3232 40.7805 55.7441 34.538 57.5075 31.8929C57.5075 31.8929 61.2107 38.5939 60.858 44.5894C60.5053 50.585 57.5075 56.0515 57.5075 56.0515C56.0968 53.8179 53.1696 48.3984 52.7464 44.5894Z" fill="white"/>
<path d="M56.6025 44.5791C56.4564 42.4661 57.6376 39.0031 58.2465 37.5358C58.2465 37.5358 59.5251 41.2531 59.4033 44.5791C59.2816 47.9051 58.2465 50.9376 58.2465 50.9376C57.7594 49.6985 56.7486 46.692 56.6025 44.5791Z" fill="black"/>
<path d="M42.4825 40.1809C39.847 40.1809 38.1328 44.4718 38.074 47.2345L47.5963 47.7635C46.7734 45.5887 45.3039 40.1809 42.4825 40.1809Z" fill="white"/>
<path d="M36.4873 48.4689L42.4829 43.884L48.4784 48.4689L42.4829 50.7613L36.4873 48.4689Z" fill="#F5CEE9"/>
<path d="M28.3756 26.9554L17.0898 31.5402H67.8757L56.4136 26.9554V9.67407H28.3756V26.9554Z" fill="#F5CEE9"/>
</g>
<rect x="0.5" y="0.5" width="84" height="84" rx="42" stroke="black"/>
</svg>
