<svg width="85" height="85" viewBox="0 0 85 85" fill="none" xmlns="http://www.w3.org/2000/svg">
<rect x="0.5" y="0.5" width="84" height="84" rx="42" fill="white"/>
<path d="M71.5 50H15V54.5H71.5V50Z" fill="black" stroke="black"/>
<path d="M21.5 6.5C21.6667 8.16667 21.5 11.5 21.5 13.5C21.5 14.618 22 21.5 22 24.5C22 26.5396 21.5 42.3333 20.5 50V55" stroke="black"/>
<path d="M62.9341 6C62.6732 7.64912 62.9341 10.5 62.9341 11.9368C62.9341 13.1986 62.9341 23.4054 62.9341 26C62.9341 31.5 64 39.5 64.5 48.0526V53" stroke="black"/>
<rect x="0.5" y="0.5" width="84" height="84" rx="42" stroke="black"/>
</svg>
