<svg width="162" height="85" viewBox="0 0 162 85" fill="none" xmlns="http://www.w3.org/2000/svg">
<path d="M67.9358 23.9477L59.4012 21.3873H107.878L99.1726 23.9477H67.9358Z" fill="#E7AAD4"/>
<path d="M69.4725 24.4598C69.4725 2.09899 98.3196 0.733439 98.3196 24.4597V118.853C134.165 153.845 147.991 171.938 138.603 202.834C129.029 234.342 47.1636 242.51 29.1889 202.834C15.1921 171.938 48.1359 134.671 69.4725 118.853V24.4598Z" fill="#322FCD"/>
<path d="M65.0343 33.8478C64.6246 30.1608 67.9361 24.1183 69.643 21.5579C69.643 21.5579 73.2275 28.0442 72.8862 33.8478C72.5448 39.6513 69.643 44.9428 69.643 44.9428C68.2774 42.7807 65.4439 37.5347 65.0343 33.8478Z" fill="white"/>
<path d="M93.5747 34.0186C93.165 30.3316 96.4765 24.2891 98.1834 21.7287C98.1834 21.7287 101.768 28.215 101.427 34.0186C101.085 39.8221 98.1834 45.1136 98.1834 45.1136C96.8179 42.9515 93.9844 37.7055 93.5747 34.0186Z" fill="white"/>
<path d="M83.6396 29.7511C81.0885 29.7511 79.4292 33.9047 79.3723 36.5788H88.0776C87.281 34.4736 86.3707 29.7511 83.6396 29.7511Z" fill="white"/>
<path d="M77.8363 37.7739L83.6399 33.3358L89.4434 37.7739L83.6399 39.9929L77.8363 37.7739Z" fill="#F5CEE9"/>
<path d="M69.9841 16.9493L59.0598 21.3873H108.219L97.1243 16.9493V0.221344H69.9841V16.9493Z" fill="#F5CEE9"/>
<path d="M132.783 55.3109C132.783 55.3109 109.787 111.132 106.275 131.203C106.275 131.203 138.824 117.936 137.332 82.8807C136.856 71.6862 132.783 55.3109 132.783 55.3109Z" fill="#F0B9DF"/>
<path d="M122.136 40.4296C118.778 41.4318 107.162 109.327 106.265 131.331C106.265 131.331 128.874 72.5645 129.744 65.1926C130.614 57.8208 125.494 39.4274 122.136 40.4296Z" fill="#F5CEE9"/>
<path d="M147.917 97.5365C147.917 97.5365 114.105 118.452 106.331 131.176C106.331 131.176 146.996 129.928 145.875 125.268C144.755 120.609 147.917 97.5365 147.917 97.5365Z" fill="#F0B9DF"/>
<path d="M142.212 75.8639C140.424 74.9489 112.374 114.28 106.364 130.987L143.256 104.514C143.256 104.514 144.001 76.7789 142.212 75.8639Z" fill="#F5CEE9"/>
<path d="M29.2164 55.3109C29.2164 55.3109 52.2126 111.132 55.7247 131.204C55.7247 131.204 23.1754 117.936 24.6668 82.8807C25.143 71.6862 29.2164 55.3109 29.2164 55.3109Z" fill="#F0B9DF"/>
<path d="M39.8631 40.4297C43.2213 41.4319 54.8369 109.328 55.7346 131.331C55.7346 131.331 33.1253 72.5646 32.2553 65.1928C31.3853 57.8209 36.5049 39.4275 39.8631 40.4297Z" fill="#F5CEE9"/>
<path d="M14.0834 97.5365C14.0834 97.5365 47.8949 118.452 55.6694 131.176C55.6694 131.176 15.0038 129.928 16.1246 125.268C17.2454 120.609 14.0834 97.5365 14.0834 97.5365Z" fill="#F0B9DF"/>
<path d="M19.7873 75.8639C21.5756 74.9489 49.6254 114.28 55.6356 130.987L18.7435 104.514C18.7435 104.514 17.9989 76.7789 19.7873 75.8639Z" fill="#F5CEE9"/>
<path d="M65.8875 28.8978C66.4337 26.8495 69.2854 21.7826 69.6427 21.7287C70 21.6747 72.3738 28.8978 72.3738 28.8978C70.0524 32.8579 67.0823 30.5478 65.8875 28.8978Z" fill="black" stroke="black" stroke-width="0.341386"/>
<path d="M100.879 29.4099C100.51 27.3223 98.9738 23.5805 98.0848 21.9623C96.3294 24.6073 95.468 26.1052 94.7505 28.8715C96.7247 33.0157 99.5475 30.9517 100.879 29.4099Z" fill="black" stroke="black" stroke-width="0.341386"/>
</svg>
