<svg width="25" height="26" viewBox="0 0 25 26" fill="none" xmlns="http://www.w3.org/2000/svg">
<path fill-rule="evenodd" clip-rule="evenodd" d="M12.0792 1.6556C12.3127 1.42592 12.6872 1.42592 12.9207 1.6556L24.1707 12.7223C24.407 12.9547 24.4101 13.3346 24.1777 13.5708C23.9453 13.807 23.5654 13.8101 23.3292 13.5778L21.3333 11.6144V21.8333C21.3333 22.1095 21.1094 22.3333 20.8333 22.3333H4.16663C3.89049 22.3333 3.66663 22.1095 3.66663 21.8333V11.6144L1.67073 13.5778C1.4345 13.8101 1.05461 13.807 0.822229 13.5708C0.589847 13.3346 0.592967 12.9547 0.829199 12.7223L12.0792 1.6556ZM12.5 2.92498L20.3333 10.6307V21.3333H16.3333V15.1667C16.3333 14.8905 16.1094 14.6667 15.8333 14.6667H10.8333C10.5572 14.6667 10.3333 14.8905 10.3333 15.1667V21.3333H4.66663V10.6307L12.5 2.92498ZM11.3333 21.3333H15.3333V15.6667H11.3333V21.3333Z" fill="black"/>
<path d="M12.9207 1.6556L13.2714 1.29916V1.29916L12.9207 1.6556ZM12.0792 1.6556L11.7286 1.29916V1.29916L12.0792 1.6556ZM24.1707 12.7223L24.5214 12.3658L24.1707 12.7223ZM24.1777 13.5708L23.8213 13.2202L23.8213 13.2202L24.1777 13.5708ZM23.3292 13.5778L23.6798 13.2213V13.2213L23.3292 13.5778ZM21.3333 11.6144L21.6839 11.2579C21.5403 11.1166 21.3259 11.0754 21.1401 11.1532C20.9542 11.2311 20.8333 11.4129 20.8333 11.6144H21.3333ZM3.66663 11.6144H4.16663C4.16663 11.4129 4.0457 11.2311 3.85987 11.1532C3.67404 11.0754 3.45963 11.1166 3.31599 11.2579L3.66663 11.6144ZM1.67073 13.5778L1.32009 13.2213H1.32009L1.67073 13.5778ZM0.822229 13.5708L1.17867 13.2202H1.17867L0.822229 13.5708ZM0.829199 12.7223L1.17984 13.0787H1.17984L0.829199 12.7223ZM20.3333 10.6307H20.8333C20.8333 10.4966 20.7795 10.3682 20.6839 10.2742L20.3333 10.6307ZM12.5 2.92498L12.8506 2.56854C12.656 2.37713 12.3439 2.37713 12.1493 2.56854L12.5 2.92498ZM20.3333 21.3333V21.8333C20.6094 21.8333 20.8333 21.6095 20.8333 21.3333H20.3333ZM16.3333 21.3333H15.8333C15.8333 21.6095 16.0572 21.8333 16.3333 21.8333V21.3333ZM10.3333 21.3333V21.8333C10.6094 21.8333 10.8333 21.6095 10.8333 21.3333H10.3333ZM4.66663 21.3333H4.16663C4.16663 21.6095 4.39049 21.8333 4.66663 21.8333V21.3333ZM4.66663 10.6307L4.31599 10.2742C4.22044 10.3682 4.16663 10.4966 4.16663 10.6307H4.66663ZM11.3333 21.3333H10.8333C10.8333 21.6095 11.0572 21.8333 11.3333 21.8333V21.3333ZM15.3333 21.3333V21.8333C15.6094 21.8333 15.8333 21.6095 15.8333 21.3333H15.3333ZM15.3333 15.6667H15.8333C15.8333 15.3905 15.6094 15.1667 15.3333 15.1667V15.6667ZM11.3333 15.6667V15.1667C11.0572 15.1667 10.8333 15.3905 10.8333 15.6667H11.3333ZM13.2714 1.29916C12.8433 0.878064 12.1566 0.878064 11.7286 1.29916L12.4298 2.01205C12.4688 1.97377 12.5312 1.97377 12.5701 2.01205L13.2714 1.29916ZM24.5214 12.3658L13.2714 1.29916L12.5701 2.01205L23.8201 13.0787L24.5214 12.3658ZM24.5341 13.9214C24.9602 13.4883 24.9545 12.7919 24.5214 12.3658L23.8201 13.0787C23.8595 13.1175 23.86 13.1808 23.8213 13.2202L24.5341 13.9214ZM22.9786 13.9342C23.4117 14.3602 24.1081 14.3545 24.5341 13.9214L23.8213 13.2202C23.7825 13.2595 23.7192 13.26 23.6798 13.2213L22.9786 13.9342ZM20.9827 11.9708L22.9786 13.9342L23.6798 13.2213L21.6839 11.2579L20.9827 11.9708ZM21.8333 21.8333V11.6144H20.8333V21.8333H21.8333ZM20.8333 22.8333C21.3856 22.8333 21.8333 22.3856 21.8333 21.8333H20.8333V22.8333ZM4.16663 22.8333H20.8333V21.8333H4.16663V22.8333ZM3.16663 21.8333C3.16663 22.3856 3.61435 22.8333 4.16663 22.8333V21.8333H3.16663ZM3.16663 11.6144V21.8333H4.16663V11.6144H3.16663ZM2.02137 13.9342L4.01727 11.9708L3.31599 11.2579L1.32009 13.2213L2.02137 13.9342ZM0.465783 13.9214C0.891817 14.3545 1.58828 14.3602 2.02137 13.9342L1.32009 13.2213C1.28072 13.26 1.21741 13.2595 1.17867 13.2202L0.465783 13.9214ZM0.478561 12.3658C0.0454705 12.7919 0.0397494 13.4883 0.465784 13.9214L1.17867 13.2202C1.13994 13.1808 1.14046 13.1175 1.17984 13.0787L0.478561 12.3658ZM11.7286 1.29916L0.478561 12.3658L1.17984 13.0787L12.4298 2.01205L11.7286 1.29916ZM20.6839 10.2742L12.8506 2.56854L12.1493 3.28143L19.9827 10.9871L20.6839 10.2742ZM20.8333 21.3333V10.6307H19.8333V21.3333H20.8333ZM16.3333 21.8333H20.3333V20.8333H16.3333V21.8333ZM15.8333 15.1667V21.3333H16.8333V15.1667H15.8333ZM15.8333 15.1667H15.8333H16.8333C16.8333 14.6144 16.3856 14.1667 15.8333 14.1667V15.1667ZM10.8333 15.1667H15.8333V14.1667H10.8333V15.1667ZM10.8333 15.1667V14.1667C10.281 14.1667 9.8333 14.6144 9.8333 15.1667H10.8333ZM10.8333 21.3333V15.1667H9.8333V21.3333H10.8333ZM4.66663 21.8333H10.3333V20.8333H4.66663V21.8333ZM4.16663 10.6307V21.3333H5.16663V10.6307H4.16663ZM12.1493 2.56854L4.31599 10.2742L5.01727 10.9871L12.8506 3.28143L12.1493 2.56854ZM11.3333 21.8333H15.3333V20.8333H11.3333V21.8333ZM15.8333 21.3333V15.6667H14.8333V21.3333H15.8333ZM15.3333 15.1667H11.3333V16.1667H15.3333V15.1667ZM10.8333 15.6667V21.3333H11.8333V15.6667H10.8333Z" fill="black"/>
<rect x="4" y="10" width="7" height="12" fill="black"/>
<rect x="16" y="10" width="5" height="12" fill="black"/>
<path d="M7 15L4 9.5L12.5 1.5L21.5 11.5L19 15L7 15Z" fill="black"/>
</svg>
