<svg width="20" height="36" viewBox="0 0 20 36" fill="none" xmlns="http://www.w3.org/2000/svg">
<path d="M16 7.5C16 11.229 13.408 14 10.5 14C7.59199 14 5 11.229 5 7.5C5 3.77101 7.59199 1 10.5 1C13.408 1 16 3.77101 16 7.5Z" fill="black" stroke="black" stroke-width="2"/>
<path d="M1.40956 35C1.65545 34.2637 1.90639 33.4694 2.16493 32.6509C2.3161 32.1724 2.46986 31.6856 2.62674 31.1974C3.23362 29.3088 3.89788 27.3621 4.67724 25.616C5.46144 23.859 6.33094 22.3783 7.31634 21.3753C8.2819 20.3925 9.29838 19.9225 10.4501 20.0105C11.5729 20.0964 12.56 20.6794 13.4687 21.7181C14.3882 22.769 15.1756 24.2315 15.8672 25.9282C16.8109 28.2432 17.5084 30.7983 18.1433 33.1243C18.3197 33.7706 18.4913 34.3992 18.6621 35H1.40956Z" fill="black" stroke="black" stroke-width="2"/>
</svg>
