<svg width="33" height="36" viewBox="0 0 33 36" fill="none" xmlns="http://www.w3.org/2000/svg">
<path d="M12 7C12 10.4639 9.62236 13 7 13C4.37764 13 2 10.4639 2 7C2 3.53612 4.37764 1 7 1C9.62236 1 12 3.53612 12 7Z" fill="black" stroke="black" stroke-width="2"/>
<path d="M30 7C30 10.4639 27.6224 13 25 13C22.3776 13 20 10.4639 20 7C20 3.53612 22.3776 1 25 1C27.6224 1 30 3.53612 30 7Z" fill="black" stroke="black" stroke-width="2"/>
<path d="M18.3923 29C18.5667 28.4552 18.7443 27.8764 18.9262 27.2836C19.0469 26.8903 19.1695 26.4908 19.2943 26.091C19.7796 24.5365 20.3089 22.9402 20.9287 21.5106C21.5535 20.0696 22.2395 18.8723 23.0058 18.0694C23.7534 17.2861 24.5083 16.9423 25.3426 17.008C26.164 17.0727 26.9074 17.5111 27.6151 18.3438C28.3324 19.1877 28.9541 20.3721 29.5048 21.7629C30.2564 23.6609 30.8096 25.7475 31.3162 27.658C31.4379 28.1172 31.557 28.5662 31.6754 29H18.3923Z" fill="black" stroke="black" stroke-width="2"/>
<path d="M1.39227 29C1.5667 28.4552 1.74431 27.8764 1.92622 27.2836C2.04691 26.8903 2.1695 26.4908 2.29432 26.091C2.77957 24.5365 3.30888 22.9402 3.92873 21.5106C4.55353 20.0696 5.23949 18.8723 6.00582 18.0694C6.75335 17.2861 7.50828 16.9423 8.34257 17.008C9.16397 17.0727 9.90741 17.5111 10.6151 18.3438C11.3324 19.1877 11.9541 20.3721 12.5048 21.7629C13.2564 23.6609 13.8096 25.7475 14.3162 27.658C14.4379 28.1172 14.557 28.5662 14.6754 29H1.39227Z" fill="black" stroke="black" stroke-width="2"/>
<path d="M21 12C21 15.4639 18.6224 18 16 18C13.3776 18 11 15.4639 11 12C11 8.53612 13.3776 6 16 6C18.6224 6 21 8.53612 21 12Z" fill="black" stroke="black" stroke-width="2"/>
<path d="M10.3948 35C10.5488 34.5211 10.7054 34.0157 10.8653 33.4994C10.9784 33.1346 11.0931 32.7643 11.2098 32.3941C11.6645 30.9511 12.1598 29.4721 12.7391 28.1486C13.3234 26.8139 13.9623 25.7112 14.6724 24.9743C15.3632 24.2573 16.0549 23.9478 16.817 24.0073C17.5687 24.0659 18.2519 24.4627 18.9071 25.2262C19.5722 26.0013 20.1515 27.0927 20.6664 28.3806C21.3694 30.139 21.8856 32.0679 22.3598 33.8394C22.4658 34.2353 22.5696 34.6234 22.673 35H10.3948Z" fill="black" stroke="black" stroke-width="2"/>
</svg>
